<svg xmlns="http://www.w3.org/2000/svg" id="svg0.16631082779157857"
  viewBox="215.8 275.02 582.2 538.98">
  <path
    d="M0 0 C337.92 0 675.84 0 1024 0 C1024 337.92 1024 675.84 1024 1024 C686.08 1024 348.16 1024 0 1024 C0 686.08 0 348.16 0 0 Z "
    transform="translate(0,0)" style="fill: none;" />
  <path
    d="M0 0 C10.61326187 8.415985 17.24399296 18.4208476 23.08203125 30.5078125 C23.46746094 31.28898437 23.85289062 32.07015625 24.25 32.875 C24.5490625 33.53757812 24.848125 34.20015625 25.15625 34.8828125 C29.56267757 40.0452448 37.33915577 41.75012418 43.625 43.625 C45.28809792 44.13692568 46.95084944 44.64997781 48.61328125 45.1640625 C49.87906006 45.55319824 49.87906006 45.55319824 51.17041016 45.95019531 C55.39746987 47.26079986 59.60747548 48.62053329 63.8125 50 C64.57997559 50.2460498 65.34745117 50.49209961 66.13818359 50.74560547 C71.51872429 52.51872429 71.51872429 52.51872429 73.75 54.75 C73.67358398 57.24389648 73.67358398 57.24389648 72.75 59.75 C70.68774414 60.99243164 70.68774414 60.99243164 67.97265625 61.84765625 C66.47629639 62.32936279 66.47629639 62.32936279 64.94970703 62.82080078 C58.65003433 64.65023419 52.32942 66.37476963 45.97851562 68.01757812 C32.5893181 71.59699631 32.5893181 71.59699631 22.6875 80.7109375 C19.9042935 86.76441164 19.3966402 92.46243216 19.4375 99 C19.43951416 99.89460938 19.44152832 100.78921875 19.44360352 101.7109375 C19.58492419 111.64908123 20.77516594 121.45898168 21.99609375 131.3125 C25.43212101 159.76100518 24.98054121 188.57089225 19.75 216.75 C19.57339844 217.72388672 19.39679687 218.69777344 19.21484375 219.70117188 C12.04161445 257.98496232 -5.01175245 294.36784501 -29.25 324.75 C-29.99507812 325.70648437 -30.74015625 326.66296875 -31.5078125 327.6484375 C-44.5375197 344.04375173 -59.40113894 358.34919768 -76.25 370.75 C-77.23226563 371.47832031 -78.21453125 372.20664062 -79.2265625 372.95703125 C-94.66240776 384.02536991 -113.44228333 396.33725034 -131.88598633 401.48583984 C-134.49927048 402.56114366 -134.49927048 402.56114366 -135.33666992 405.38867188 C-135.54912354 406.48759766 -135.76157715 407.58652344 -135.98046875 408.71875 C-136.22603516 409.93046875 -136.47160156 411.1421875 -136.72460938 412.390625 C-136.95986328 413.66421875 -137.19511719 414.9378125 -137.4375 416.25 C-137.68435547 417.49265625 -137.93121094 418.7353125 -138.18554688 420.015625 C-138.66872684 422.45858289 -139.14217311 424.90348883 -139.60522461 427.3503418 C-140.31884286 431.11298254 -141.08045839 434.8643052 -141.85644531 438.61450195 C-143.18233667 445.28068828 -143.18233667 445.28068828 -141.140625 451.515625 C-139.29987309 453.46572851 -137.35800815 455.09020621 -135.25 456.75 C-134.35023438 457.46414063 -133.45046875 458.17828125 -132.5234375 458.9140625 C-130.37482447 460.58399719 -128.21978963 462.23753837 -126.046875 463.875 C-121.72079361 467.13683772 -117.45683937 470.47696697 -113.1875 473.8125 C-107.20849689 478.47315536 -101.19520382 483.07587185 -95.11328125 487.6015625 C-92.49057111 489.56948961 -89.8932633 491.56543404 -87.30249023 493.57495117 C-77.04742158 501.92761985 -77.04742158 501.92761985 -65.5625 508.25 C-61.83772569 509.93669025 -59.90881607 511.89082604 -57.16015625 514.83984375 C-54.34785402 517.65214598 -51.18040492 519.92932062 -47.97265625 522.26953125 C-47.11994141 523.00236328 -47.11994141 523.00236328 -46.25 523.75 C-46.25 524.41 -46.25 525.07 -46.25 525.75 C-50.07097239 525.21930939 -52.31171403 524.25298434 -55.25 521.75 C-54.92 523.07 -54.59 524.39 -54.25 525.75 C-68.05811496 526.25211327 -68.05811496 526.25211327 -73.09375 522.3046875 C-74.26594196 521.11651111 -75.40981015 519.89988032 -76.52734375 518.66015625 C-79.48605776 515.37940534 -82.8932345 512.61296033 -86.25 509.75 C-86.73807129 509.33169922 -87.22614258 508.91339844 -87.72900391 508.48242188 C-93.62519302 503.43213745 -99.54492745 498.45026917 -105.7109375 493.73046875 C-109.08021489 491.10243238 -112.37970117 488.39224815 -115.6875 485.6875 C-121.59374518 480.86972752 -127.55088777 476.12316058 -133.5625 471.4375 C-134.31990479 470.84412842 -135.07730957 470.25075684 -135.85766602 469.6394043 C-139.07413925 467.13637389 -142.2826041 464.67783154 -145.69140625 462.44140625 C-152.38747187 458.01005524 -155.05139838 454.45138737 -157.25 446.75 C-157.56751221 445.98961426 -157.88502441 445.22922852 -158.2121582 444.44580078 C-160.03077112 439.72194196 -160.85541897 434.75924633 -161.875 429.8125 C-162.10445312 428.74064453 -162.33390625 427.66878906 -162.5703125 426.56445312 C-162.89515625 425.00307617 -162.89515625 425.00307617 -163.2265625 423.41015625 C-163.42330566 422.46793213 -163.62004883 421.52570801 -163.82275391 420.55493164 C-164.27593272 417.57974801 -164.32263439 414.75490128 -164.25 411.75 C-164.80349121 411.87117188 -165.35698242 411.99234375 -165.92724609 412.1171875 C-168.49099203 412.67208776 -171.05784923 413.2110804 -173.625 413.75 C-174.93017578 414.03617188 -174.93017578 414.03617188 -176.26171875 414.328125 C-182.33653189 415.58808624 -188.05210192 415.99024154 -194.25 415.75 C-194.47492576 420.39039151 -194.63688197 425.02752069 -194.74438477 429.67211914 C-194.78924977 431.24657529 -194.85037252 432.82066507 -194.92895508 434.39379883 C-195.03999152 436.67621459 -195.08954227 438.95362961 -195.12890625 441.23828125 C-195.1985836 442.26868279 -195.1985836 442.26868279 -195.26966858 443.31990051 C-195.28061139 454.26425461 -183.16359853 463.14700039 -176.02393913 470.30978203 C-175.31406192 471.02075633 -175.31406192 471.02075633 -174.58984375 471.74609375 C-173.59040409 472.75198538 -172.59110387 473.75801559 -171.5919342 474.76417542 C-169.51717927 476.85077897 -167.43846334 478.93333922 -165.35717773 481.01342773 C-162.70555233 483.66484862 -160.06804015 486.32985486 -157.43370724 488.99844265 C-155.38239617 491.07207705 -153.3219712 493.13647043 -151.25894356 495.19844246 C-150.28260087 496.1771255 -149.30945276 497.15900745 -148.33976555 498.1442852 C-142.96311763 503.59936855 -138.30507364 507.721219 -131.25 510.75 C-129.21875 512.64453125 -129.21875 512.64453125 -127.75 514.5625 C-124.30688745 518.80078866 -120.44146802 522.26618242 -116.25 525.75 C-120.42587745 527.14195915 -122.38474776 525.57323219 -126.25 523.75 C-126.25 524.41 -126.25 525.07 -126.25 525.75 C-128.14510699 525.83160748 -130.04124504 525.88946459 -131.9375 525.9375 C-133.52111328 525.98970703 -133.52111328 525.98970703 -135.13671875 526.04296875 C-140.83342652 525.50689211 -143.62687783 522.61799824 -147.19287109 518.32250977 C-147.66547363 517.74170654 -148.13807617 517.16090332 -148.625 516.5625 C-154.92735682 509.01690869 -161.60793596 501.88088202 -168.36962891 494.74804688 C-170.20371674 492.79917972 -172.01731622 490.8334447 -173.82421875 488.859375 C-183.1654399 478.67179286 -192.75627477 468.7656799 -203.875 460.5 C-208.57135769 456.80890842 -210.48592413 453.38982876 -212.25 447.75 C-212.58386719 446.75871094 -212.91773438 445.76742188 -213.26171875 444.74609375 C-219.25 426.24697955 -219.25 426.24697955 -219.25 418.75 C-219.98299316 418.76047363 -220.71598633 418.77094727 -221.47119141 418.78173828 C-262.56776972 419.28815377 -300.59502548 412.60696109 -339.65258789 400.08935547 C-340.31914398 399.87627243 -340.98570007 399.66318939 -341.67245483 399.44364929 C-343.49117333 398.86084449 -345.30850164 398.27370649 -347.12573242 397.6862793 C-370.19693484 390.7723103 -396.80112077 400.87304426 -419.31201172 406.51513672 C-424.17470307 407.73347899 -429.0421224 408.93212503 -433.91015625 410.12890625 C-451.44144893 414.44862617 -468.85892675 419.01291981 -486.1484375 424.2265625 C-486.93516846 424.46213867 -487.72189941 424.69771484 -488.5324707 424.94042969 C-489.9988699 425.38071059 -491.46370588 425.82625037 -492.92651367 426.27832031 C-496.23553664 427.276365 -498.74889422 427.75 -502.25 427.75 C-502.75 424.6875 -502.75 424.6875 -502.25 420.75 C-492.02571802 406.5442998 -466.52268567 399.92651741 -450.25 396.75 C-461.99237067 397.29397564 -473.65424801 398.45123475 -485.33642578 399.73364258 C-493.01023418 400.54428435 -500.53406652 400.93511801 -508.25 400.75 C-508.61489986 396.24622942 -508.61489986 396.24622942 -507.0065918 394.05908203 C-502.59457147 390.45267056 -498.50263112 388.28195736 -493.0625 386.625 C-492.28350342 386.37838623 -491.50450684 386.13177246 -490.7019043 385.87768555 C-468.9872621 379.24631966 -445.87058545 376.63053286 -423.25 375.75 C-423.86891113 375.71036133 -424.48782227 375.67072266 -425.12548828 375.62988281 C-439.26557728 374.70241185 -453.36878345 373.51942894 -467.46405029 372.0670166 C-469.08902367 371.89980774 -470.71422349 371.73478226 -472.33966064 371.57214355 C-483.10171137 370.48967095 -493.65179604 368.91602322 -504.25 366.75 C-504.29241723 364.41705225 -504.29092937 362.08297433 -504.25 359.75 C-499.74478533 355.24478533 -485.20979901 357.56078568 -478.90838623 357.56002808 C-478.13424377 357.56084381 -477.36010132 357.56165955 -476.5625 357.5625 C-475.77063293 357.56210724 -474.97876587 357.56171448 -474.16290283 357.56130981 C-461.13017035 357.56894117 -448.1385845 357.99741523 -435.125 358.6875 C-434.30383698 358.73097565 -433.48267395 358.77445129 -432.6366272 358.81924438 C-418.61620838 359.57670961 -418.61620838 359.57670961 -411.93359375 360.3046875 C-404.06441666 361.06237684 -396.14288671 360.9359933 -388.24487305 360.93530273 C-385.45410854 360.937487 -382.6637417 360.95569191 -379.87304688 360.97460938 C-366.92263836 361.01636259 -354.36654363 360.40403477 -341.875 356.625 C-341.17294434 356.41472168 -340.47088867 356.20444336 -339.74755859 355.98779297 C-322.0357779 350.38730812 -307.01950934 339.94489391 -293.25 327.75 C-292.26 326.88375 -291.27 326.0175 -290.25 325.125 C-278.52187962 314.64455201 -268.04503427 303.04276801 -258.25 290.75 C-257.19971292 289.46597655 -256.14748812 288.18353662 -255.09375 286.90234375 C-248.89186393 279.35039333 -242.8635367 271.75480158 -237.25 263.75 C-237.98476563 263.894375 -238.71953125 264.03875 -239.4765625 264.1875 C-273.58215273 269.83256321 -309.08867488 265.32286382 -337.6875 245.01953125 C-342.41035632 241.19204977 -345.28578996 237.63861526 -346 231.5625 C-345.74742584 226.11411446 -343.0235195 223.11463792 -339.31640625 219.32421875 C-333.61753347 214.2696173 -326.82079459 210.53929259 -320.25 206.75 C-320.80042969 206.50507813 -321.35085938 206.26015625 -321.91796875 206.0078125 C-325.03658899 204.60564216 -328.1445781 203.1810838 -331.25 201.75 C-332.0435791 201.38519531 -332.8371582 201.02039063 -333.65478516 200.64453125 C-354.06949061 191.2206 -354.06949061 191.2206 -363.25 184.75 C-364.36415478 183.99415956 -365.47876902 183.23899613 -366.59375 182.484375 C-378.74652866 174.1496151 -392.85877754 164.02088299 -398.25 149.75 C-398.1875 147.0625 -398.1875 147.0625 -397.25 144.75 C-390.46603185 138.635021 -379.6790567 139.44447508 -371.0625 139.5625 C-370.07306396 139.56894531 -369.08362793 139.57539063 -368.06420898 139.58203125 C-359.76856799 139.66794775 -351.51835086 140.07797148 -343.25 140.75 C-343.84683594 140.44449219 -344.44367188 140.13898438 -345.05859375 139.82421875 C-365.0434296 129.28244055 -383.55232001 115.89711328 -399.77539062 100.17773438 C-401.2092092 98.78949414 -402.65909281 97.4179068 -404.109375 96.046875 C-418.30034789 82.33695204 -429.59447691 66.21169958 -437.875 48.3125 C-438.21813232 47.5915918 -438.56126465 46.87068359 -438.91479492 46.12792969 C-441.12473019 41.1171304 -442.2665872 36.22698323 -441.25 30.75 C-436.95103228 25.69871293 -431.73580508 24.12934587 -425.203125 23.5769043 C-423.13160922 23.51839394 -421.07193694 23.5257086 -419 23.5625 C-418.32582031 23.56314453 -417.65164063 23.56378906 -416.95703125 23.56445312 C-405.54754896 23.66006331 -394.83634267 25.25927451 -383.75 27.9375 C-383.09060425 28.09539001 -382.4312085 28.25328003 -381.75183105 28.41595459 C-305.29605599 46.75032489 -231.73582544 87.05811059 -173.21875 139.33203125 C-172.58042236 139.89712402 -171.94209473 140.4622168 -171.28442383 141.04443359 C-170.08373963 142.11259019 -168.89280808 143.19184723 -167.71362305 144.28369141 C-164.83053052 146.95957906 -164.83053052 146.95957906 -161.1328125 147.8203125 C-142.88983666 137.44982416 -125.52107085 108.74955143 -119.80078125 89.09375 C-119.37517852 87.48250427 -118.96276079 85.86772736 -118.5625 84.25 C-118.34537354 83.38342773 -118.12824707 82.51685547 -117.90454102 81.62402344 C-116.58849782 76.0543861 -115.86990069 70.71366822 -115.6875 65 C-114.96124486 43.52538672 -105.62263813 23.42355946 -90.0625 8.5625 C-64.66935015 -13.53374918 -28.49384048 -20.54706587 0 0 Z "
    transform="translate(724.25,287.25)" style="fill: #0B0C0D;" />
  <path
    d="M0 0 C4.0743356 0.84881992 5.54405875 2.30225596 8 5.625 C8.625 8.625 8.625 8.625 8 11.625 C5.54853142 14.94169279 4.04375441 16.38580628 0 17.3125 C-4.32475043 16.32141136 -5.64743715 14.29223032 -8 10.625 C-8.625 8.0625 -8.625 8.0625 -8 5.625 C-5.53235541 2.35899981 -4.04381805 0.84246209 0 0 Z "
    transform="translate(674,327.375)" style="fill: #DFDCD2;" />
  <path
    d="M0 0 C-3.40157549 3.03681802 -6.50606127 3.76425096 -10.9375 4.625 C-12.14277344 4.86476563 -13.34804688 5.10453125 -14.58984375 5.3515625 C-16.27787109 5.67253906 -16.27787109 5.67253906 -18 6 C-19.66692161 6.3320561 -21.33369916 6.66484272 -23 7 C-23.33 5.68 -23.66 4.36 -24 3 C-25.65 3 -27.3 3 -29 3 C-29 2.67 -29 2.34 -29 2 C-25.85495307 1.65896535 -22.70886583 1.32862537 -19.5625 1 C-18.24475586 0.85691406 -18.24475586 0.85691406 -16.90039062 0.7109375 C-11.23241145 0.12531604 -5.69811032 -0.09274645 0 0 Z "
    transform="translate(276,683)" style="fill: #D2CEC3;" />
  <path
    d="M0 0 C0.97590088 0.03963867 1.95180176 0.07927734 2.95727539 0.12011719 C4.02010742 0.16265625 5.08293945 0.20519531 6.17797852 0.24902344 C7.29237305 0.30445313 8.40676758 0.35988281 9.55493164 0.41699219 C11.22072266 0.47693359 11.22072266 0.47693359 12.92016602 0.53808594 C21.23295772 0.91067624 21.23295772 0.91067624 24.61743164 3.16699219 C20.53487509 3.39300681 16.45147089 3.59473892 12.36743164 3.79199219 C10.62913086 3.88867188 10.62913086 3.88867188 8.85571289 3.98730469 C7.74067383 4.03886719 6.62563477 4.09042969 5.47680664 4.14355469 C3.93718262 4.22210693 3.93718262 4.22210693 2.36645508 4.30224609 C-0.45223705 4.16356444 -2.00084599 3.62691825 -4.38256836 2.16699219 C-2.38256836 0.16699219 -2.38256836 0.16699219 0 0 Z "
    transform="translate(279.382568359375,660.8330078125)" style="fill: #BEB9B1;" />
  <path
    d="M0 0 C1.31611677 0.95336021 2.62778961 1.91285774 3.9375 2.875 C4.66839844 3.40867187 5.39929688 3.94234375 6.15234375 4.4921875 C8 6 8 6 9 8 C4.73052871 7.49770926 0.83163192 7.02851102 -3 5 C-3.33 4.01 -3.66 3.02 -4 2 C-2.68 1.34 -1.36 0.68 0 0 Z "
    transform="translate(599,806)" style="fill: #2F2C27;" />
  <path
    d="M0 0 C-3.69172595 3.53790403 -7.09390595 3.59115883 -12 4 C-12 3.34 -12 2.68 -12 2 C-13.98 2 -15.96 2 -18 2 C-18 1.67 -18 1.34 -18 1 C-11.93303301 0.22959149 -6.11485027 -0.09706112 0 0 Z "
    transform="translate(276,683)" style="fill: #9C9793;" />
  <path
    d="M0 0 C2.94956528 1.36944102 5.52468811 2.87830409 8 5 C8 5.66 8 6.32 8 7 C4.67277559 6.4454626 1.8986087 5.75986957 -1 4 C-1.33 3.34 -1.66 2.68 -2 2 C-1.34 2 -0.68 2 0 2 C0 1.34 0 0.68 0 0 Z "
    transform="translate(670,806)" style="fill: #23201C;" />
  <path
    d="M0 0 C0 0.33 0 0.66 0 1 C-1.65 1 -3.3 1 -5 1 C-5.268125 1.639375 -5.53625 2.27875 -5.8125 2.9375 C-7 5 -7 5 -10 6 C-10.73323796 8.01508358 -10.73323796 8.01508358 -11 10 C-11.3125 7.8125 -11.3125 7.8125 -11 5 C-7.65953926 0.57880196 -5.52265388 -0.64216906 0 0 Z "
    transform="translate(677,328)" style="fill: #B2B0AB;" />
</svg>